<svg 
 xmlns="http://www.w3.org/2000/svg"
 xmlns:xlink="http://www.w3.org/1999/xlink"
 width="1497px" height="699px">
<defs>
<linearGradient id="PSgrad_0" x1="0%" x2="100%" y1="0%" y2="0%">
  <stop offset="0%" stop-color="rgb(234,97,123)" stop-opacity="1" />
  <stop offset="100%" stop-color="rgb(252,148,135)" stop-opacity="1" />
</linearGradient>

</defs>
<path fill-rule="evenodd"  fill="rgb(76, 76, 113)"
 d="M1324.000,368.000 C1313.058,368.000 1302.357,366.973 1291.978,365.030 C1291.990,366.186 1292.000,367.342 1292.000,368.500 C1292.000,551.030 1144.030,699.000 961.500,699.000 C808.735,699.000 680.180,595.353 642.315,454.545 C628.300,458.103 613.622,460.000 598.500,460.000 C538.107,460.000 484.768,429.831 452.705,383.749 C408.438,450.205 332.838,494.000 247.000,494.000 C110.586,494.000 -0.000,383.414 -0.000,247.000 C-0.000,110.586 110.586,-0.000 247.000,-0.000 C350.559,-0.000 439.217,63.740 475.924,154.122 C507.787,123.690 550.960,105.000 598.500,105.000 C643.026,105.000 683.721,121.397 714.881,148.480 C775.407,80.685 863.467,38.000 961.500,38.000 C1041.246,38.000 1114.395,66.245 1171.491,113.276 C1200.665,58.946 1258.015,22.000 1324.000,22.000 C1419.545,22.000 1497.000,99.455 1497.000,195.000 C1497.000,290.545 1419.545,368.000 1324.000,368.000 Z"/>
<path fill="url(#PSgrad_0)"
 d="M1324.000,368.000 C1313.058,368.000 1302.357,366.973 1291.978,365.030 C1291.990,366.186 1292.000,367.342 1292.000,368.500 C1292.000,551.030 1144.030,699.000 961.500,699.000 C808.735,699.000 680.180,595.353 642.315,454.545 C628.300,458.103 613.622,460.000 598.500,460.000 C538.107,460.000 484.768,429.831 452.705,383.749 C408.438,450.205 332.838,494.000 247.000,494.000 C110.586,494.000 -0.000,383.414 -0.000,247.000 C-0.000,110.586 110.586,-0.000 247.000,-0.000 C350.559,-0.000 439.217,63.740 475.924,154.122 C507.787,123.690 550.960,105.000 598.500,105.000 C643.026,105.000 683.721,121.397 714.881,148.480 C775.407,80.685 863.467,38.000 961.500,38.000 C1041.246,38.000 1114.395,66.245 1171.491,113.276 C1200.665,58.946 1258.015,22.000 1324.000,22.000 C1419.545,22.000 1497.000,99.455 1497.000,195.000 C1497.000,290.545 1419.545,368.000 1324.000,368.000 Z"/>
</svg>