<svg 
 xmlns="http://www.w3.org/2000/svg"
 xmlns:xlink="http://www.w3.org/1999/xlink"
 width="1497px" height="699px">
<defs>
<linearGradient id="PSgrad_0" x1="0%" x2="100%" y1="0%" y2="0%">
  <stop offset="0%" stop-color="rgb(104,101,242)" stop-opacity="1" />
  <stop offset="98%" stop-color="rgb(178,24,254)" stop-opacity="1" />
</linearGradient>

</defs>
<path fill-rule="evenodd"  fill="rgb(76, 76, 113)"
 d="M1250.000,494.000 C1164.162,494.000 1088.562,450.205 1044.294,383.749 C1012.232,429.831 958.893,460.000 898.500,460.000 C883.378,460.000 868.700,458.103 854.685,454.545 C816.820,595.353 688.265,699.000 535.500,699.000 C352.970,699.000 205.000,551.030 205.000,368.500 C205.000,367.342 205.010,366.186 205.022,365.030 C194.643,366.973 183.942,368.000 173.000,368.000 C77.455,368.000 -0.000,290.545 -0.000,195.000 C-0.000,99.455 77.455,22.000 173.000,22.000 C238.985,22.000 296.335,58.946 325.509,113.276 C382.605,66.245 455.753,38.000 535.500,38.000 C633.533,38.000 721.593,80.685 782.118,148.480 C813.279,121.397 853.974,105.000 898.500,105.000 C946.040,105.000 989.213,123.690 1021.076,154.122 C1057.783,63.740 1146.441,-0.000 1250.000,-0.000 C1386.414,-0.000 1497.000,110.586 1497.000,247.000 C1497.000,383.414 1386.414,494.000 1250.000,494.000 Z"/>
<path fill="url(#PSgrad_0)"
 d="M1250.000,494.000 C1164.162,494.000 1088.562,450.205 1044.294,383.749 C1012.232,429.831 958.893,460.000 898.500,460.000 C883.378,460.000 868.700,458.103 854.685,454.545 C816.820,595.353 688.265,699.000 535.500,699.000 C352.970,699.000 205.000,551.030 205.000,368.500 C205.000,367.342 205.010,366.186 205.022,365.030 C194.643,366.973 183.942,368.000 173.000,368.000 C77.455,368.000 -0.000,290.545 -0.000,195.000 C-0.000,99.455 77.455,22.000 173.000,22.000 C238.985,22.000 296.335,58.946 325.509,113.276 C382.605,66.245 455.753,38.000 535.500,38.000 C633.533,38.000 721.593,80.685 782.118,148.480 C813.279,121.397 853.974,105.000 898.500,105.000 C946.040,105.000 989.213,123.690 1021.076,154.122 C1057.783,63.740 1146.441,-0.000 1250.000,-0.000 C1386.414,-0.000 1497.000,110.586 1497.000,247.000 C1497.000,383.414 1386.414,494.000 1250.000,494.000 Z"/>
</svg>